<svg width="49" height="48" viewBox="0 0 49 48" fill="none" xmlns="http://www.w3.org/2000/svg">
<path d="M6.5 19.3693C6.5 17.5085 8.00849 16 9.86932 16V16C11.4154 16 12.7631 14.9478 13.138 13.4479L13.1874 13.2503C13.3896 12.4415 13.8641 11.7269 14.5311 11.2267L15.1 10.8C15.3596 10.6053 15.6754 10.5 16 10.5V10.5H24.5H31.965C32.2213 10.5 32.3494 10.5 32.4749 10.5159C32.6362 10.5364 32.7945 10.5765 32.9461 10.6353C33.064 10.681 33.1767 10.742 33.4021 10.8641L34.1096 11.2472C34.1097 11.2472 34.1098 11.2473 34.1099 11.2473C35.003 11.7309 35.6787 12.5362 35.9999 13.4997C35.9999 13.4997 35.9999 13.4998 36 13.5V13.5V13.5C36.2907 14.9536 37.5671 16 39.0495 16H39.2029C41.0239 16 42.5 17.4761 42.5 19.2971V34C42.5 36.8284 42.5 38.2426 41.6213 39.1213C40.7426 40 39.3284 40 36.5 40H12.5C9.67157 40 8.25736 40 7.37868 39.1213C6.5 38.2426 6.5 36.8284 6.5 34V19.3693Z" stroke="white" stroke-width="2"/>
<path d="M27.3052 28.1653L23.1494 30.8099L27.3052 33.4545" stroke="white" stroke-width="2"/>
<path d="M31.5256 23.8678C32.2026 24.614 32.5389 25.4656 32.4964 26.3268C32.454 27.188 32.0346 28.0246 31.2855 28.7424C30.5364 29.4601 29.4873 30.0305 28.2564 30.3894C27.0254 30.7483 25.6614 30.8813 24.3181 30.7736" stroke="white" stroke-width="2" stroke-linecap="round"/>
<path d="M23.1494 24.1983L27.3052 21.5537L23.1494 18.9091" stroke="white" stroke-width="2"/>
<path d="M18.9289 28.4959C18.2421 27.7389 17.9062 26.8735 17.9602 26.0001C18.0141 25.1266 18.4557 24.2807 19.2337 23.5603C20.0118 22.8399 21.0946 22.2745 22.3567 21.9295C23.6188 21.5845 25.0087 21.474 26.3654 21.6108" stroke="white" stroke-width="2" stroke-linecap="round"/>
</svg>
