<svg width="30" height="30" viewBox="0 0 30 30" fill="none" xmlns="http://www.w3.org/2000/svg">
<path d="M5 14.2183C5 14.0156 5 13.9143 5.00163 13.8286C5.09378 8.99226 8.99226 5.09378 13.8286 5.00163C13.9143 5 14.0345 5 14.2748 5V5C14.6739 5 14.8734 5 15.0181 5.00466C20.2246 5.17227 24.2018 9.71141 23.684 14.8947C23.6696 15.0389 23.6462 15.215 23.5995 15.5674L23.2994 17.8321C23.1279 19.1258 23.366 20.4407 23.9801 21.5921L24.5057 22.5776C25.11 23.7108 23.7113 24.8488 22.7248 24.0266V24.0266C21.5605 23.0564 20.0344 22.6351 18.5372 22.8706L15.6507 23.3246C15.4205 23.3608 15.3054 23.379 15.212 23.3916C9.88437 24.1157 5.11457 20.0376 5.00197 14.6621C5 14.5679 5 14.4514 5 14.2183V14.2183Z" stroke="white" stroke-width="2"/>
<path d="M11.25 13.75L18.75 13.75" stroke="white" stroke-width="2" stroke-linecap="round" stroke-linejoin="round"/>
<path d="M15 18.75H18.75" stroke="white" stroke-width="2" stroke-linecap="round" stroke-linejoin="round"/>
</svg>
