<svg width="190" height="190" viewBox="0 0 190 190" fill="none" xmlns="http://www.w3.org/2000/svg">
<rect width="190" height="190" rx="33" fill="#494545" fill-opacity="0.67"/>
<path d="M95 90.3333L91.7473 93.586L95 96.8387L98.2527 93.586L95 90.3333ZM99.6 41.5833C99.6 39.0428 97.5405 36.9833 95 36.9833C92.4595 36.9833 90.4 39.0428 90.4 41.5833L99.6 41.5833ZM64.664 66.5027L91.7473 93.586L98.2527 87.0806L71.1694 59.9973L64.664 66.5027ZM98.2527 93.586L125.336 66.5027L118.831 59.9973L91.7473 87.0806L98.2527 93.586ZM99.6 90.3333L99.6 41.5833L90.4 41.5833L90.4 90.3333L99.6 90.3333Z" fill="#CBC4C4"/>
<path d="M57.0833 101.167L57.0833 106.583C57.0833 112.566 61.9336 117.417 67.9166 117.417L122.083 117.417C128.066 117.417 132.917 112.566 132.917 106.583V101.167" stroke="#CBC4C4" stroke-width="9.2"/>
<path d="M45.4574 171.5H41.0746V159.136H45.4936C46.7372 159.136 47.8078 159.384 48.7053 159.879C49.6027 160.37 50.293 161.076 50.7759 161.998C51.2629 162.92 51.5064 164.022 51.5064 165.306C51.5064 166.594 51.2629 167.701 50.7759 168.626C50.293 169.552 49.5987 170.262 48.6932 170.757C47.7917 171.252 46.7131 171.5 45.4574 171.5ZM43.6886 169.26H45.3487C46.1214 169.26 46.7714 169.123 47.2987 168.85C47.8299 168.572 48.2283 168.143 48.494 167.564C48.7636 166.98 48.8984 166.228 48.8984 165.306C48.8984 164.393 48.7636 163.646 48.494 163.066C48.2283 162.487 47.8319 162.06 47.3047 161.787C46.7775 161.513 46.1275 161.376 45.3548 161.376H43.6886V169.26ZM57.5841 171.681C56.6463 171.681 55.8354 171.482 55.1512 171.083C54.471 170.681 53.9458 170.122 53.5756 169.405C53.2053 168.685 53.0202 167.85 53.0202 166.9C53.0202 165.942 53.2053 165.105 53.5756 164.388C53.9458 163.668 54.471 163.109 55.1512 162.71C55.8354 162.308 56.6463 162.107 57.5841 162.107C58.5218 162.107 59.3308 162.308 60.0109 162.71C60.6951 163.109 61.2223 163.668 61.5926 164.388C61.9629 165.105 62.148 165.942 62.148 166.9C62.148 167.85 61.9629 168.685 61.5926 169.405C61.2223 170.122 60.6951 170.681 60.0109 171.083C59.3308 171.482 58.5218 171.681 57.5841 171.681ZM57.5961 169.689C58.0228 169.689 58.3789 169.568 58.6647 169.327C58.9504 169.081 59.1657 168.747 59.3106 168.325C59.4595 167.902 59.534 167.421 59.534 166.882C59.534 166.342 59.4595 165.862 59.3106 165.439C59.1657 165.016 58.9504 164.682 58.6647 164.437C58.3789 164.191 58.0228 164.069 57.5961 164.069C57.1655 164.069 56.8033 164.191 56.5095 164.437C56.2197 164.682 56.0004 165.016 55.8515 165.439C55.7066 165.862 55.6341 166.342 55.6341 166.882C55.6341 167.421 55.7066 167.902 55.8515 168.325C56.0004 168.747 56.2197 169.081 56.5095 169.327C56.8033 169.568 57.1655 169.689 57.5961 169.689ZM65.417 171.5L62.8936 162.227H65.4955L66.9323 168.457H67.0168L68.5139 162.227H71.0676L72.5889 168.421H72.6673L74.08 162.227H76.6759L74.1585 171.5H71.4358L69.8421 165.668H69.7274L68.1336 171.5H65.417ZM80.6195 166.139V171.5H78.0478V162.227H80.4988V163.863H80.6074C80.8127 163.324 81.1568 162.897 81.6397 162.583C82.1227 162.266 82.7083 162.107 83.3965 162.107C84.0404 162.107 84.6019 162.247 85.0808 162.529C85.5597 162.811 85.932 163.213 86.1976 163.737C86.4632 164.256 86.5961 164.875 86.5961 165.596V171.5H84.0243V166.055C84.0284 165.487 83.8835 165.045 83.5897 164.727C83.2959 164.405 82.8914 164.244 82.3762 164.244C82.0301 164.244 81.7243 164.318 81.4586 164.467C81.197 164.616 80.9918 164.833 80.8429 165.119C80.698 165.401 80.6235 165.741 80.6195 166.139ZM91.1947 159.136V171.5H88.623V159.136H91.1947ZM97.4444 171.681C96.5067 171.681 95.6957 171.482 95.0115 171.083C94.3314 170.681 93.8062 170.122 93.4359 169.405C93.0656 168.685 92.8805 167.85 92.8805 166.9C92.8805 165.942 93.0656 165.105 93.4359 164.388C93.8062 163.668 94.3314 163.109 95.0115 162.71C95.6957 162.308 96.5067 162.107 97.4444 162.107C98.3822 162.107 99.1911 162.308 99.8713 162.71C100.555 163.109 101.083 163.668 101.453 164.388C101.823 165.105 102.008 165.942 102.008 166.9C102.008 167.85 101.823 168.685 101.453 169.405C101.083 170.122 100.555 170.681 99.8713 171.083C99.1911 171.482 98.3822 171.681 97.4444 171.681ZM97.4565 169.689C97.8831 169.689 98.2393 169.568 98.525 169.327C98.8108 169.081 99.0261 168.747 99.171 168.325C99.3199 167.902 99.3944 167.421 99.3944 166.882C99.3944 166.342 99.3199 165.862 99.171 165.439C99.0261 165.016 98.8108 164.682 98.525 164.437C98.2393 164.191 97.8831 164.069 97.4565 164.069C97.0259 164.069 96.6636 164.191 96.3699 164.437C96.0801 164.682 95.8607 165.016 95.7118 165.439C95.5669 165.862 95.4945 166.342 95.4945 166.882C95.4945 167.421 95.5669 167.902 95.7118 168.325C95.8607 168.747 96.0801 169.081 96.3699 169.327C96.6636 169.568 97.0259 169.689 97.4565 169.689ZM106.325 171.675C105.733 171.675 105.206 171.572 104.743 171.367C104.28 171.158 103.914 170.85 103.644 170.444C103.379 170.033 103.246 169.522 103.246 168.91C103.246 168.395 103.34 167.962 103.53 167.612C103.719 167.262 103.976 166.98 104.302 166.767C104.628 166.554 104.999 166.393 105.413 166.284C105.832 166.175 106.27 166.099 106.729 166.055C107.269 165.998 107.703 165.946 108.033 165.898C108.363 165.845 108.603 165.769 108.752 165.668C108.901 165.568 108.975 165.419 108.975 165.222V165.185C108.975 164.803 108.854 164.507 108.613 164.298C108.375 164.089 108.037 163.984 107.599 163.984C107.136 163.984 106.767 164.087 106.494 164.292C106.22 164.493 106.039 164.747 105.95 165.053L103.572 164.859C103.693 164.296 103.93 163.809 104.284 163.398C104.638 162.984 105.095 162.666 105.655 162.445C106.218 162.219 106.87 162.107 107.611 162.107C108.126 162.107 108.619 162.167 109.09 162.288C109.565 162.408 109.985 162.596 110.351 162.849C110.722 163.103 111.013 163.429 111.227 163.827C111.44 164.221 111.547 164.694 111.547 165.246V171.5H109.108V170.214H109.035C108.886 170.504 108.687 170.759 108.438 170.981C108.188 171.198 107.888 171.369 107.538 171.494C107.188 171.615 106.784 171.675 106.325 171.675ZM107.061 169.9C107.44 169.9 107.774 169.826 108.063 169.677C108.353 169.524 108.581 169.319 108.746 169.061C108.911 168.804 108.993 168.512 108.993 168.186V167.202C108.913 167.254 108.802 167.302 108.661 167.347C108.524 167.387 108.369 167.425 108.196 167.461C108.023 167.493 107.85 167.524 107.677 167.552C107.504 167.576 107.347 167.598 107.206 167.618C106.904 167.663 106.641 167.733 106.415 167.83C106.19 167.926 106.015 168.057 105.89 168.222C105.765 168.383 105.703 168.584 105.703 168.826C105.703 169.176 105.83 169.443 106.083 169.629C106.341 169.81 106.667 169.9 107.061 169.9ZM116.959 171.651C116.254 171.651 115.617 171.47 115.045 171.108C114.478 170.741 114.027 170.204 113.693 169.496C113.363 168.783 113.198 167.91 113.198 166.876C113.198 165.813 113.369 164.93 113.711 164.225C114.053 163.517 114.508 162.988 115.075 162.638C115.647 162.284 116.273 162.107 116.953 162.107C117.472 162.107 117.905 162.195 118.251 162.372C118.601 162.545 118.883 162.763 119.096 163.024C119.313 163.282 119.478 163.535 119.591 163.785H119.669V159.136H122.235V171.5H119.7V170.015H119.591C119.47 170.272 119.299 170.528 119.078 170.782C118.86 171.031 118.577 171.238 118.227 171.403C117.88 171.568 117.458 171.651 116.959 171.651ZM117.774 169.604C118.188 169.604 118.538 169.492 118.824 169.266C119.114 169.037 119.335 168.717 119.488 168.306C119.645 167.896 119.724 167.415 119.724 166.864C119.724 166.312 119.647 165.833 119.494 165.427C119.341 165.02 119.12 164.706 118.83 164.485C118.54 164.264 118.188 164.153 117.774 164.153C117.351 164.153 116.995 164.268 116.705 164.497C116.415 164.727 116.196 165.045 116.047 165.451C115.898 165.857 115.824 166.328 115.824 166.864C115.824 167.403 115.898 167.88 116.047 168.294C116.2 168.705 116.42 169.027 116.705 169.26C116.995 169.49 117.351 169.604 117.774 169.604ZM128.575 171.681C127.622 171.681 126.801 171.488 126.112 171.102C125.428 170.711 124.901 170.16 124.531 169.447C124.16 168.731 123.975 167.884 123.975 166.906C123.975 165.952 124.16 165.115 124.531 164.395C124.901 163.674 125.422 163.113 126.094 162.71C126.77 162.308 127.563 162.107 128.473 162.107C129.084 162.107 129.654 162.205 130.181 162.402C130.712 162.596 131.175 162.887 131.57 163.278C131.968 163.668 132.278 164.159 132.499 164.751C132.721 165.338 132.831 166.027 132.831 166.815V167.522H125.002V165.928H130.411C130.411 165.558 130.33 165.23 130.169 164.944C130.008 164.658 129.785 164.435 129.499 164.274C129.217 164.109 128.889 164.026 128.515 164.026C128.125 164.026 127.778 164.117 127.477 164.298C127.179 164.475 126.945 164.714 126.776 165.016C126.607 165.314 126.521 165.646 126.517 166.012V167.528C126.517 167.987 126.601 168.383 126.77 168.717C126.943 169.051 127.187 169.309 127.501 169.49C127.815 169.671 128.187 169.761 128.618 169.761C128.903 169.761 129.165 169.721 129.402 169.641C129.64 169.56 129.843 169.439 130.012 169.278C130.181 169.117 130.31 168.92 130.399 168.687L132.777 168.844C132.656 169.415 132.409 169.914 132.035 170.341C131.664 170.763 131.185 171.094 130.598 171.331C130.014 171.564 129.34 171.681 128.575 171.681ZM137.927 171.651C137.222 171.651 136.584 171.47 136.013 171.108C135.445 170.741 134.995 170.204 134.661 169.496C134.331 168.783 134.166 167.91 134.166 166.876C134.166 165.813 134.337 164.93 134.679 164.225C135.021 163.517 135.476 162.988 136.043 162.638C136.615 162.284 137.24 162.107 137.921 162.107C138.44 162.107 138.872 162.195 139.218 162.372C139.569 162.545 139.85 162.763 140.064 163.024C140.281 163.282 140.446 163.535 140.559 163.785H140.637V159.136H143.203V171.5H140.667V170.015H140.559C140.438 170.272 140.267 170.528 140.046 170.782C139.828 171.031 139.544 171.238 139.194 171.403C138.848 171.568 138.426 171.651 137.927 171.651ZM138.742 169.604C139.156 169.604 139.506 169.492 139.792 169.266C140.082 169.037 140.303 168.717 140.456 168.306C140.613 167.896 140.691 167.415 140.691 166.864C140.691 166.312 140.615 165.833 140.462 165.427C140.309 165.02 140.088 164.706 139.798 164.485C139.508 164.264 139.156 164.153 138.742 164.153C138.319 164.153 137.963 164.268 137.673 164.497C137.383 164.727 137.164 165.045 137.015 165.451C136.866 165.857 136.792 166.328 136.792 166.864C136.792 167.403 136.866 167.88 137.015 168.294C137.168 168.705 137.387 169.027 137.673 169.26C137.963 169.49 138.319 169.604 138.742 169.604ZM148.39 159.136L148.155 167.793H145.945L145.704 159.136H148.39ZM147.05 171.657C146.651 171.657 146.309 171.516 146.024 171.234C145.738 170.949 145.597 170.607 145.601 170.208C145.597 169.814 145.738 169.476 146.024 169.194C146.309 168.912 146.651 168.771 147.05 168.771C147.432 168.771 147.768 168.912 148.058 169.194C148.348 169.476 148.495 169.814 148.499 170.208C148.495 170.474 148.424 170.717 148.287 170.939C148.155 171.156 147.98 171.331 147.762 171.464C147.545 171.593 147.307 171.657 147.05 171.657Z" fill="#C6B0B0"/>
</svg>
