<svg width="30" height="30" viewBox="0 0 30 30" fill="none" xmlns="http://www.w3.org/2000/svg">
<path d="M21.875 14.9999C25.6719 14.9999 28.75 18.078 28.75 21.8749C28.75 25.6719 25.6719 28.7499 21.875 28.7499C18.078 28.7499 15 25.6719 15 21.8749C15 18.078 18.078 14.9999 21.875 14.9999ZM15 2.49866C21.9046 2.49866 27.5019 8.09596 27.5019 15.0006C27.5019 15.3296 27.4892 15.6557 27.4643 15.9783C26.9169 15.4588 26.297 15.0151 25.6215 14.6634C25.4439 8.95066 20.7565 4.37366 15 4.37366C9.13089 4.37366 4.37305 9.1315 4.37305 15.0006C4.37305 20.7575 8.95073 25.4452 14.6646 25.6223C15.0156 26.2976 15.4592 26.9172 15.9781 27.4645C15.6559 27.4898 15.3294 27.5025 15 27.5025C8.09536 27.5025 2.49805 21.9052 2.49805 15.0006C2.49805 8.09596 8.09536 2.49866 15 2.49866ZM21.875 17.499L21.7626 17.5091C21.5075 17.5554 21.3064 17.7565 21.2601 18.0116L21.25 18.124L21.2495 21.249L18.122 21.2499L18.0097 21.26C17.7546 21.3063 17.5534 21.5075 17.5071 21.7626L17.497 21.8749L17.5071 21.9873C17.5534 22.2424 17.7546 22.4436 18.0097 22.4899L18.122 22.4999L21.2508 22.499L21.2514 25.6293L21.2614 25.7416C21.3077 25.9968 21.5089 26.1979 21.764 26.2442L21.8764 26.2543L21.9887 26.2442C22.2438 26.1979 22.445 25.9968 22.4913 25.7416L22.5014 25.6293L22.5008 22.499L25.6307 22.4999L25.743 22.4899C25.9982 22.4436 26.1993 22.2424 26.2456 21.9873L26.2557 21.8749L26.2456 21.7626C26.1993 21.5075 25.9982 21.3063 25.743 21.26L25.6307 21.2499L22.4995 21.249L22.5 18.124L22.4899 18.0116C22.4436 17.7565 22.2424 17.5554 21.9873 17.5091L21.875 17.499ZM10.5772 18.4797C11.4039 19.529 12.5656 20.2467 13.8647 20.5128C13.789 20.9547 13.75 21.4103 13.75 21.8749C13.75 22.051 13.7556 22.2258 13.7666 22.3991C11.9226 22.0958 10.2641 21.112 9.10438 19.6401C8.78394 19.2334 8.85387 18.644 9.26057 18.3236C9.66726 18.0031 10.2567 18.073 10.5772 18.4797ZM11.2505 10.9389C12.113 10.9389 12.8122 11.6381 12.8122 12.5005C12.8122 13.363 12.113 14.0621 11.2505 14.0621C10.3881 14.0621 9.68893 13.363 9.68893 12.5005C9.68893 11.6381 10.3881 10.9389 11.2505 10.9389ZM18.7505 10.9389C19.613 10.9389 20.3122 11.6381 20.3122 12.5005C20.3122 13.363 19.613 14.0621 18.7505 14.0621C17.8881 14.0621 17.1889 13.363 17.1889 12.5005C17.1889 11.6381 17.8881 10.9389 18.7505 10.9389Z" fill="white"/>
</svg>
