<svg width="41" height="41" viewBox="0 0 41 41" fill="none" xmlns="http://www.w3.org/2000/svg">
<circle cx="20.5" cy="13.25" r="4.75" stroke="#E2DBDB" stroke-linecap="round"/>
<path d="M23.4655 10.1315C23.9092 9.50662 24.5283 9.02734 25.2444 8.75429C25.9605 8.48123 26.7415 8.42666 27.4886 8.59747C28.2358 8.76828 28.9155 9.1568 29.4418 9.71391C29.9681 10.271 30.3174 10.9717 30.4455 11.7273C30.5736 12.4829 30.4747 13.2596 30.1615 13.959C29.8482 14.6584 29.3345 15.2493 28.6854 15.6568C28.0364 16.0643 27.281 16.2702 26.5149 16.2484C25.7488 16.2267 25.0064 15.9782 24.3815 15.5345" stroke="#E2DBDB"/>
<path d="M17.5155 10.105C17.0665 9.48386 16.4435 9.00981 15.7251 8.74279C15.0067 8.47577 14.2253 8.42778 13.4796 8.60487C12.7339 8.78196 12.0575 9.17619 11.5359 9.73771C11.0143 10.2992 10.6709 11.0028 10.5492 11.7595C10.4275 12.5161 10.5328 13.2919 10.852 13.9887C11.1712 14.6855 11.6898 15.272 12.3423 15.674C12.9947 16.0761 13.7518 16.2756 14.5177 16.2474C15.2836 16.2192 16.0239 15.9645 16.645 15.5155" stroke="#E2DBDB"/>
<path d="M20.5 21.125C28.2935 21.125 29.7765 28.0091 30.0587 30.6291C30.1178 31.1782 29.6773 31.625 29.125 31.625H11.875C11.3227 31.625 10.8822 31.1782 10.9413 30.6291C11.2235 28.0091 12.7065 21.125 20.5 21.125Z" stroke="#E2DBDB" stroke-linecap="round"/>
<path d="M33.4502 27.0351L33.9405 26.9375V26.9375L33.4502 27.0351ZM22.4024 21.2753L22.0332 20.9382L21.4127 21.6177L22.3204 21.7686L22.4024 21.2753ZM29.5673 28.125L29.087 28.264L29.1914 28.625H29.5673V28.125ZM26.625 19.875C28.7886 19.875 30.2403 21.066 31.233 22.5975C32.2337 24.1414 32.7312 25.9843 32.9598 27.1327L33.9405 26.9375C33.7023 25.7405 33.1739 23.7534 32.0722 22.0536C30.9624 20.3414 29.235 18.875 26.625 18.875V19.875ZM22.7716 21.6125C23.7055 20.5896 24.9457 19.875 26.625 19.875V18.875C24.6178 18.875 23.1224 19.7452 22.0332 20.9382L22.7716 21.6125ZM22.3204 21.7686C26.5524 22.4718 28.33 25.6474 29.087 28.264L30.0476 27.986C29.2415 25.1999 27.2657 21.5767 22.4844 20.7821L22.3204 21.7686ZM32.52 27.625H29.5673V28.625H32.52V27.625ZM32.9598 27.1327C33.0084 27.3769 32.8241 27.625 32.52 27.625V28.625C33.3991 28.625 34.123 27.8537 33.9405 26.9375L32.9598 27.1327Z" fill="#E2DBDB"/>
<path d="M18.5976 21.2753L18.6796 21.7686L19.5873 21.6177L18.9668 20.9382L18.5976 21.2753ZM7.54979 27.0351L8.04016 27.1327V27.1327L7.54979 27.0351ZM11.4327 28.125V28.625H11.8086L11.913 28.264L11.4327 28.125ZM14.375 19.875C16.0543 19.875 17.2944 20.5896 18.2283 21.6125L18.9668 20.9382C17.8776 19.7452 16.3822 18.875 14.375 18.875V19.875ZM8.04016 27.1327C8.26879 25.9843 8.76625 24.1414 9.76697 22.5975C10.7596 21.066 12.2114 19.875 14.375 19.875V18.875C11.765 18.875 10.0376 20.3414 8.92782 22.0536C7.82606 23.7534 7.2977 25.7405 7.05941 26.9375L8.04016 27.1327ZM8.47999 27.625C8.17585 27.625 7.99154 27.3769 8.04016 27.1327L7.05941 26.9375C6.877 27.8537 7.60089 28.625 8.47999 28.625V27.625ZM11.4327 27.625H8.47999V28.625H11.4327V27.625ZM11.913 28.264C12.67 25.6474 14.4476 22.4718 18.6796 21.7686L18.5156 20.7821C13.7343 21.5767 11.7585 25.1999 10.9524 27.986L11.913 28.264Z" fill="#E2DBDB"/>
</svg>
