<svg width="49" height="49" viewBox="0 0 49 49" fill="none" xmlns="http://www.w3.org/2000/svg">
<path d="M24.5 28.7137L23.0858 30.128L24.5 31.5422L25.9142 30.128L24.5 28.7137ZM26.5 10.7137C26.5 9.60918 25.6046 8.71375 24.5 8.71375C23.3954 8.71375 22.5 9.60918 22.5 10.7137L26.5 10.7137ZM13.0858 20.128L23.0858 30.128L25.9142 27.2995L15.9142 17.2995L13.0858 20.128ZM25.9142 30.128L35.9142 20.128L33.0858 17.2995L23.0858 27.2995L25.9142 30.128ZM26.5 28.7137L26.5 10.7137L22.5 10.7137L22.5 28.7137L26.5 28.7137Z" fill="#B2BCDA"/>
<path d="M10.5 32.7137L10.5 34.7137C10.5 36.9229 12.2909 38.7137 14.5 38.7137L34.5 38.7137C36.7091 38.7137 38.5 36.9229 38.5 34.7137V32.7137" stroke="#B2BCDA" stroke-width="4"/>
</svg>
