<svg width="49" height="48" viewBox="0 0 49 48" fill="none" xmlns="http://www.w3.org/2000/svg">
<path d="M21.5556 26.8232L15.9358 26.3123C14.408 26.1735 13.6441 26.104 13.4015 25.5814C13.1588 25.0588 13.5987 24.4304 14.4785 23.1736L25.0612 8.05544C25.6424 7.22517 25.933 6.81003 26.1836 6.89831C26.4342 6.98658 26.4005 7.4922 26.3331 8.50343L25.6299 19.0519C25.5685 19.9721 25.5379 20.4322 25.8023 20.7419C26.0667 21.0515 26.5259 21.0933 27.4444 21.1768L33.0642 21.6877C34.592 21.8265 35.3559 21.896 35.5985 22.4186C35.8412 22.9412 35.4013 23.5696 34.5215 24.8264L23.9388 39.9446C23.3576 40.7748 23.067 41.19 22.8164 41.1017C22.5658 41.0134 22.5995 40.5078 22.6669 39.4966L23.3701 28.9481C23.4315 28.0279 23.4621 27.5678 23.1977 27.2581C22.9333 26.9485 22.4741 26.9067 21.5556 26.8232Z" stroke="white"/>
<path d="M37.5 8L34.5 12H38.5L35.5 16" stroke="#C1C1C1" stroke-linecap="round" stroke-linejoin="round"/>
<path d="M13.5 32L10.5 36H14.5L11.5 40" stroke="#C1C1C1" stroke-linecap="round" stroke-linejoin="round"/>
</svg>
