<svg width="30" height="30" viewBox="0 0 30 30" fill="none" xmlns="http://www.w3.org/2000/svg">
<path d="M5 10L3.93934 11.0607L2.87868 10L3.93934 8.93934L5 10ZM11.25 25.25C10.4216 25.25 9.75 24.5784 9.75 23.75C9.75 22.9216 10.4216 22.25 11.25 22.25L11.25 25.25ZM10.1893 17.3107L3.93934 11.0607L6.06066 8.93934L12.3107 15.1893L10.1893 17.3107ZM3.93934 8.93934L10.1893 2.68933L12.3107 4.81065L6.06066 11.0607L3.93934 8.93934ZM5 8.5L18.125 8.5L18.125 11.5L5 11.5L5 8.5ZM18.125 25.25L11.25 25.25L11.25 22.25L18.125 22.25L18.125 25.25ZM26.5 16.875C26.5 21.5004 22.7504 25.25 18.125 25.25L18.125 22.25C21.0935 22.25 23.5 19.8435 23.5 16.875L26.5 16.875ZM18.125 8.5C22.7504 8.49999 26.5 12.2496 26.5 16.875L23.5 16.875C23.5 13.9065 21.0935 11.5 18.125 11.5L18.125 8.5Z" fill="#F5F5F5"/>
</svg>
