<svg width="56" height="56" viewBox="0 0 56 56" fill="none" xmlns="http://www.w3.org/2000/svg">
<path fill-rule="evenodd" clip-rule="evenodd" d="M24.6477 29.6519L10.7754 25.0278L10.7754 25.0278C8.42221 24.2434 7.24561 23.8512 7.24561 23.1304C7.24561 22.4096 8.42221 22.0174 10.7754 21.233L42.5386 10.6453C44.1944 10.0934 45.0223 9.81742 45.4593 10.2544C45.8963 10.6915 45.6203 11.5193 45.0684 13.1751L34.4807 44.9383C33.6963 47.2915 33.3041 48.4681 32.5833 48.4681C31.8626 48.4681 31.4704 47.2915 30.686 44.9383L26.0619 31.0661L35.5821 21.5458C35.9726 21.1553 35.9726 20.5222 35.5821 20.1316C35.1916 19.7411 34.5584 19.7411 34.1679 20.1316L24.6477 29.6519Z" fill="#494141" fill-opacity="0.8"/>
</svg>
