<svg width="30" height="30" viewBox="0 0 30 30" fill="none" xmlns="http://www.w3.org/2000/svg">
<path d="M4.125 8.95837H6.63109C9.49839 8.95837 10.932 8.95837 11.9949 9.7492C13.0578 10.54 13.4698 11.9132 14.2937 14.6596L14.498 15.3405C15.3219 18.0869 15.7338 19.4601 16.7967 20.2509C17.8596 21.0417 19.2933 21.0417 22.1606 21.0417H25.875M25.875 21.0417L22.25 17.4167M25.875 21.0417L22.25 24.6667" stroke="#BDC3D7" stroke-width="2"/>
<path fill-rule="evenodd" clip-rule="evenodd" d="M26.5821 8.25122L22.9571 4.62622L21.5429 6.04043L23.4608 7.95833H22.1606L22.1003 7.95833C20.7179 7.95831 19.5941 7.95829 18.6864 8.06388C17.7396 8.17403 16.9237 8.40829 16.1998 8.94686C15.8265 9.22459 15.5237 9.54903 15.2662 9.91816C15.3607 10.1036 15.4478 10.2916 15.5294 10.4807C15.7798 11.061 16.0093 11.7325 16.2402 12.4674C16.3191 12.2494 16.3969 12.0504 16.4759 11.8671C16.776 11.1715 17.0546 10.8037 17.3937 10.5514C17.7327 10.2992 18.165 10.138 18.9176 10.0505C19.6962 9.9599 20.7034 9.95833 22.1606 9.95833H23.4608L21.5429 11.8762L22.9571 13.2904L26.5821 9.66543L27.2892 8.95833L26.5821 8.25122ZM13.5255 20.0818C13.431 19.8964 13.3438 19.7084 13.2622 19.5192C13.0119 18.939 12.7823 18.2675 12.5515 17.5325C12.4726 17.7506 12.3948 17.9496 12.3157 18.1329C12.0156 18.8285 11.737 19.1963 11.398 19.4485C11.059 19.7008 10.6267 19.862 9.8741 19.9495C9.0955 20.0401 8.08829 20.0417 6.63109 20.0417H4.125V22.0417H6.63109H6.69131C8.07378 22.0417 9.19759 22.0417 10.1052 21.9361C11.052 21.826 11.868 21.5917 12.5919 21.0531C12.9651 20.7754 13.2679 20.451 13.5255 20.0818Z" fill="#BDC3D7"/>
</svg>
